# xmcd
#
# Track frame offsets:
#	150
#	11700
#	21738
#	35413
#	48413
#	59938
#	70188
#	81350
#	90338
#	101488
#	110688
#	122563
#	134225
#	147600
#	158463
#	168863
#	179038
#	186963
#	199500
#	211425
#	223500
#	231813
#	242888
#	249538
#	256600
#	267563
#
# Disc length: 3701
#
# Revision: 3
# Processed by: cddbd v1.5.1PL0 Copyright (c) Steve Scherf et al.
# Submitted via: audiograbber 1.82.00
# Normalized: r1:DSETVAR1,TDELIM( - ),TSWAP
#
DISCID=8c0e731a
DTITLE=Various Artist - Blues and Soul - Volume 2
DYEAR=1900
DGENRE=
TTITLE0=Del Vikings - Come Go With Me
TTITLE1=Lloyd Price - Where Were You On Our Wedding Day
TTITLE2=Cadets - Stranded In The Jungle
TTITLE3=Lloyd Price - Just Because
TTITLE4=Etta James and Peaches - Dance With Me Henry
TTITLE5=Baby Washington - The Time
TTITLE6=Falcons - You're So Fine
TTITLE7=Jimmy McCraklin - The Walk
TTITLE8=Brook Benton - So Many Ways
TTITLE9=Dave ''Baby'' Cortez - Happy Organ
TTITLE10=Jive Five - My True Story
TTITLE11=Ike and Tina Turner - Poor Fool
TTITLE12=Ike and Tina Turner - It's Gonna Work Out Fine
TTITLE13=Inez and Charlie Foxx - Count The Days I'm Gone
TTITLE14=Johnny Thunder - Loop De Loop
TTITLE15=Jackie Lee - The Duck
TTITLE16=James Brown - Please Please Please
TTITLE17=Lloyd Price - Misty
TTITLE18=Tommy Hunt - Human
TTITLE19=Bobby Hebb - Sunny
TTITLE20=Sunny Til and Orioles - Cryin In The Chapel
TTITLE21=Platters - With This Ring
TTITLE22=Sammy Turner - Always
TTITLE23=Sammy Turner - Paradise
TTITLE24=Ernie K'Doe - Mother-In-Law
TTITLE25=Chuck Jackson - I Don't Want To Cry
EXTD=
EXTT0=
EXTT1=
EXTT2=
EXTT3=
EXTT4=
EXTT5=
EXTT6=
EXTT7=
EXTT8=
EXTT9=
EXTT10=
EXTT11=
EXTT12=
EXTT13=
EXTT14=
EXTT15=
EXTT16=
EXTT17=
EXTT18=
EXTT19=
EXTT20=
EXTT21=
EXTT22=
EXTT23=
EXTT24=
EXTT25=
PLAYORDER=
